# xmcd CD database file
#
# Track frame offsets:
#	150
#	20694
#	47037
#	71508
#	94580
#	110457
#	125440
#	140640
#	163381
#
# Disc length: 2331 seconds
#
# Revision: 0
# Processed by: cddbd v1.5.1PL2 Copyright (c) Steve Scherf et al.
# Submitted via: CDex 1.51
#
DISCID=7f091909
DTITLE=Vlodek Gulgowski - Soundcheck (SWE-1976)
DYEAR=1976
DGENRE=Jazz
TTITLE0=Soundcheck
TTITLE1=Truth-Seeker
TTITLE2=Manhattan Vibes
TTITLE3=Love Is Back
TTITLE4=Pan-Jan
TTITLE5=Lady G
TTITLE6=Cosmic Strut
TTITLE7=One Time Sometime
TTITLE8=Tribute To Frederic Chopin
EXTD=YEAR: 1976
EXTT0=
EXTT1=
EXTT2=
EXTT3=
EXTT4=
EXTT5=
EXTT6=
EXTT7=
EXTT8=
PLAYORDER=
